<!--Generator: Adobe Illustrator 24.2.1, SVG Export Plug-In-->
<svg xmlns="http://www.w3.org/2000/svg" width="66.1" height="66.1" viewBox="0 0 66 66" overflow="visible">
  <style>
    .st0{opacity:.3;fill:#fff}.st1,.st2{opacity:.2;fill:#fff}.st2{opacity:.1}
  </style>
  <path class="st0" d="M65 33l-8 7-3-3 5-4-5-4 3-3z"/>
  <path class="st0" d="M12 29l-4 4 4 4-3 3-7-7 7-7z"/>
  <path class="st1" d="M47 32l-2 1 2 2-2 1-2-3 2-2z"/>
  <path class="st1" d="M23 33l-2 3-1-1 1-2-1-1 1-1z"/>
  <path class="st1" d="M32 20l1 1 2-1 1 1-3 2-2-2z"/>
  <path class="st0" d="M23 48l-3 3-5-5 3-3z"/>
  <path class="st2" d="M19 43l3-4 5 5-4 4z"/>
  <path class="st0" d="M28 36l3 2-2 1 2 1-3 3-5-5 3-2 1 1z"/>
  <path class="st0" d="M43 38l-5 5-2-3 1-1-1-1 2-2 1 1 1-1z"/>
  <path class="st2" d="M39 44l5-5 4 4-5 5z"/>
  <path class="st0" d="M43 48l5-5 3 3-5 5z"/>
  <path class="st2" d="M40 57l-7 8-7-8 3-3 4 5 4-5z"/>
  <path class="st1" d="M36 45l-1 2-2-2-1 2-1-2 2-2z"/>
  <path class="st2" d="M40 9l-3 3-4-4-4 4-3-3 7-7z"/>
  <path class="st0" d="M20 15l3 3-5 5-3-3z"/>
  <path class="st0" d="M31 26l-2 1 2 1-3 3-1-2-1 2-3-3 5-5z"/>
  <path class="st2" d="M27 22l-5 5-3-3 5-5z"/>
  <path class="st0" d="M43 28l-3 3-1-2-1 2-2-3 1-1-1-1 2-3z"/>
  <path class="st0" d="M43 18l3-3 5 5-3 2z"/>
  <path class="st2" d="M47 24l-3 3-5-5 4-3z"/>
  <radialGradient id="SVGID_1_" cx="12.7" cy="16.9" r="56.1" gradientUnits="userSpaceOnUse">
    <stop offset="0" stop-color="#fffad2"/>
    <stop offset=".1" stop-color="#fef3c0"/>
    <stop offset=".3" stop-color="#f3de92"/>
    <stop offset=".4" stop-color="#f2dc8e"/>
    <stop offset=".7" stop-color="#f0bf00"/>
    <stop offset="1" stop-color="#c9961a"/>
  </radialGradient>
  <path d="M29 33l4-4 4 4-4 5-4-5zm4-3l-3 3 3 3 3-3-3-3z" fill="url(#SVGID_1_)"/>
  <radialGradient id="SVGID_2_" cx="12.7" cy="16.9" r="56.1" gradientUnits="userSpaceOnUse">
    <stop offset="0" stop-color="#fffad2"/>
    <stop offset=".1" stop-color="#fef3c0"/>
    <stop offset=".3" stop-color="#f3de92"/>
    <stop offset=".4" stop-color="#f2dc8e"/>
    <stop offset=".7" stop-color="#f0bf00"/>
    <stop offset="1" stop-color="#c9961a"/>
  </radialGradient>
  <path d="M57 33l-4-3-3 3 3 4 4-4zm-3-4l5 4-5 4 3 3 8-7-8-7-3 3zm-7 6l-2-2 2-1-2-1-2 2 2 3 2-1zm1-2l-1-1-1 1 1 1 1-1zm0 2l4 3 1-1-4-3-1 1zm3 11l-3-3-5 5 3 3 5-5zm-3-4l1-1-3-4-1 1 3 4zm1-17l-1-1-3 4 1 1 3-4zm-1-2l3-3-5-5-3 3 5 5zm0 9l1 1 4-4-1-1-4 4zm-9-10l5 5 3-4-4-4-4 3zm0 22l4 3 4-4-3-4-5 5zm3-26l-1-1-4 4h1l4-3zm-1 31l1-1-4-3-1 1 4 3zm-3 3l-3-4-1 1 3 4 1-1zm-3-34l3-4-1-1-3 4 1 1zm1 20l1 1-1 1 2 3 5-5-2-2-1 1-1-1-3 2zm0-12l1 1-1 1 2 3 1-1 1 1 3-3-5-5-2 3zm-3-5l-1-1-1 1 2 2 3-2-1-1-2 1zm-1-2l1 1 1-1-1-1-1 1zm4 26l-3-2-2 2 1 1 1-1 2 2 1-2zm-2 2l-1-1-1 1 1 1 1-1zM33 2l-7 7 3 3 4-4 4 4 3-3-7-7zm0 57l-4-5-3 3 7 8 7-8-3-3-4 5zm-4-6l3-4-1-1-3 4 1 1zm4-36l-4-4-1 1 4 4 1-1zm-3 37l3 3 4-3-4-4-3 4zm3-45l-3 4 3 3 4-3-4-4zM23 33l-2-2-1 1 1 1-1 2 1 1 2-3zm3 3l-3 2 5 5 3-2-1-1 1-1-3-3-1 1-1-1zm-3-8l3 3 1-1 1 1 3-3-1-1 1-1-3-3-5 5zm-1 9l4-3 1 1 1-1 4 4-1 1 1 1-3 4 1 1 3-4 4 4 1-1-4-4 1-1-1-1 4-4 1 1 1-1 4 3 1-1-4-3 4-3-1-1-4 3-1-1-1 1-4-4 1-1-1-1 3-4-1-1-3 4-3-4-1 1 3 4-1 1 1 1-4 4-1-1-1 1-4-3-1 1 4 3-4 4h1zm7-16l-4-4-1 1 4 4 1-1zm-4 28l4-3-1-1-4 3 1 1zm-9-16l-3-3-4 3 4 4 3-4zm-3-4l4 3 1-1-4-3-1 1zm5 6l-1-1-4 3 1 1 4-3zm5 13l-5-5-3 3 5 5 3-3zm-1-20l-4-4-1 1 4 4 1-1zm-4 14l4-4-1-1-4 4 1 1zm0-19l5-5-3-3-5 5 3 3zm1 20l4 5 4-4-5-5-3 4zm0-19l3 3 5-5-4-3-4 5zm0 10l1-1-1-1-1 1 1 1zM8 33l4-4-3-3-7 7 7 7 3-3-4-4zm5 5l-4 4-9-9 9-9 4 4 1-2 5 5 1-1-4-5 1-1-4-4 7-7 3 4 2-1 5 4 1-1-5-5 2-1-4-4 9-9 9 9-4 4 2 1-5 5 2 1 4-4 2 1 4-4 6 7-4 4 2 1-5 5 1 1 5-5 2 2 3-4 9 9-9 9-3-4-2 2-5-5-1 2 5 4-2 2 4 4-7 6-3-4-2 2-4-5-2 1 5 5-2 2 4 3-9 9-9-9 4-3-2-2 5-5-1-1-5 5-1-2-4 4-7-7 4-3-2-2 5-4-1-2-5 5-1-2z" fill="url(#SVGID_2_)"/>
</svg>
