<svg xmlns="http://www.w3.org/2000/svg" overflow="visible" viewBox="0 0 232.5 50.3">
  <style>
    .st0{opacity:.1;fill:#fff}.st1,.st3{opacity:.2;fill:#fff}.st3{opacity:5.000000e-02}
  </style>
  <path class="st0" d="M128.9 20.9l3.8-3.4 3.8 3.4zM96.6 29.9h7.4l-3.7 3.7zM128.5 29.9h7.4l-3.7 3.7zM96.6 20.4l3.7-3.7 3.7 3.7zM121.5 6l3.7 3.7-3.7 3.7zM107.3 40.6l3.7-3.7v7.5zM121.5 36.9l3.7 3.7-3.7 3.8z"/>
  <path class="st1" d="M107.3 9.7L111 6v7.4z"/>
  <path class="st0" d="M128.9 25.2l-1.9-1.9h11.1l1.9 1.9-1.9 1.9H127z"/>
  <path opacity=".3" fill="#fff" d="M94.2 27.6l-2.4-2.4 2.4-2.5h12.6l-2.5 2.5 2.5 2.4z"/>
  <path class="st1" d="M120.63 17.579l6.222-6.223 3.677 3.677-6.222 6.223zM120.643 32.728l3.677-3.677 6.222 6.222-3.677 3.677zM101.938 15.054l3.677-3.677 6.223 6.222-3.677 3.677z"/>
  <path class="st0" d="M113.3 3.6l3-2.9 2.9 2.9v12.6l-2.9-3-3 3z"/>
  <path class="st3" d="M113.3 46.7V34.2l3 2.9 2.9-2.9v12.5l-2.9 2.9zM102.659 35.294l5.515-5.515 2.97 2.97-5.515 5.515z"/>
  <radialGradient id="SVGID_1_" cx="116.261" cy="25.167" r="84.113" gradientUnits="userSpaceOnUse">
    <stop offset="0" stop-color="#fffad2"/>
    <stop offset=".117" stop-color="#fef3c0"/>
    <stop offset=".349" stop-color="#f3de92"/>
    <stop offset=".371" stop-color="#f2dc8e"/>
    <stop offset=".685" stop-color="#f0bf00"/>
    <stop offset="1" stop-color="#c9961a"/>
  </radialGradient>
  <path d="M132.4 17.9l2.4 2.1H130l2.4-2.1m0-1.2l-.7.6-2.4 2.1-1.7 1.5h9.6l-1.7-1.5-2.4-2.1-.7-.6zm-29.6 13.7l-2.5 2.5-2.5-2.5h5m2.5-1h-10l1.8 1.8 2.5 2.5.7.7.7-.7 2.5-2.5 1.8-1.8zm29.4 1l-2.5 2.5-2.5-2.5h5m2.5-1h-10l1.8 1.8 2.5 2.5.7.7.7-.7 2.5-2.5 1.8-1.8zm-36.9-12l2.5 2.5h-5l2.5-2.5m0-1.4l-.7.7-2.5 2.5-1.8 1.8h10l-1.8-1.8-2.5-2.5-.7-.7zM122 7.2l2.5 2.5-2.5 2.5v-5m-1-2.5v10l1.8-1.8 2.5-2.5.7-.7-.8-.7-2.5-2.5-1.7-1.8zm-10.5 33.5v5l-2.5-2.5 2.5-2.5m1-2.5l-1.8 1.8-2.5 2.5-.7.7.7.7 2.5 2.5 1.8 1.8v-10zm10.5 2.5l2.5 2.5-2.5 2.5v-5m-1-2.5v10l1.8-1.8 2.5-2.5.7-.7-.7-.7-2.5-2.5-1.8-1.8zM110.5 7.2v5L108 9.7l2.5-2.5m1-2.5l-1.8 1.8-2.4 2.5-.7.7.7.7 2.5 2.5 1.8 1.8v-10h-.1zm26.8 22.9h-12.5l2.4-2.4-2.4-2.4h12.5l2.4 2.4-2.4 2.4zm-10-1h9.6l1.4-1.4-1.4-1.4h-9.6l1.4 1.4-1.4 1.4zm-22.8-3.3l-1.9 1.9 1.9 1.9h-11l-1.9-1.9 1.9-1.9h11m2.5-1.1H94l-.3.3-1.9 1.9-.7.7.7.7 1.9 1.9.3.3h14l-1.8-1.8L105 25l1.2-1.2 1.8-1.6zm18.9-10.1l3 3-5.5 5.5-3-3 5.5-5.5m0-1.5l-.7.7-5.5 5.5-.7.7.7.7 3 3 .7.7.7-.7 5.5-5.5.7-.7-.7-.7-3-3-.7-.7zM105.6 39l-3.7-3.7 6.3-6.3 3.7 3.7-6.3 6.3zm-2.2-3.7l2.2 2.2 4.8-4.8-2.2-2.2-4.8 4.8zm20.9-5.5l5.5 5.5-3 3-5.5-5.5 3-3m0-1.5l-.7.7-3 3-.7.7.7.7 5.5 5.5.7.7.7-.7 3-3 .7-.7-.7-.7L125 29l-.7-.7zm-18.7-16.2l5.5 5.5-3 3-5.5-5.5 3-3m0-1.5l-.7.7-3 3-.7.7.7.7 5.5 5.5.7.7.7-.7 3-3 .7-.7-.7-.7-5.5-5.5-.7-.7zm10.7-9.1l2.4 2.4V15l-2.4-2.4-2.4 2.4V3.9l2.4-2.4m0-1.5l-.7.7-2.4 2.4-.3.3v14l1.8-1.8 1.7-1.7 1.7 1.7 1.8 1.8v-14l-.3-.3L117 .7l-.7-.7zm2.4 35.4v11.1l-2.4 2.4-2.4-2.4V35.4l2.4 2.4 2.4-2.4m1-2.5l-1.8 1.8-1.7 1.7-1.7-1.7-1.8-1.8v14l.3.3 2.4 2.4.7.7.7-.7 2.4-2.4.3-.3v-14h.2zM232.5 16h-93.4l6.2-6.2-.7-.7-7.9 7.9h95.9v-1zM95.9 33.3H0v1h93.4l-6.2 6.2.7.7 8-7.9zm49.4 7.2l-6.2-6.2h93.4v-1h-95.9l7.9 7.9.8-.7zM88 9.1l-.7.7 6.2 6.2H0v1h95.9L88 9.1zm144.5 10.3h-93.3v1h93.3v-1zM93.3 29.9H0v1h93.3v-1zm139.2 0h-93.3v1h93.3v-1zM93.3 19.4H0v1h93.3v-1zm139.2 3.3h-90v1h90v-1zM90 26.6H0v1h90v-1zm142.5 0h-90v1h90v-1zM90 22.7H0v1h90v-1z" fill="url(#SVGID_1_)"/>
</svg>